<svg width="159" height="159" viewBox="0 0 159 159" fill="none" xmlns="http://www.w3.org/2000/svg">
<g clip-path="url(#clip0_173_344)">
<rect width="158.939" height="158.939" rx="33.4257" fill="black"/>
<rect width="488.133" height="33.5221" transform="matrix(0.702905 -0.711283 0.702905 0.711283 -162.449 182.078)" fill="#4AADFF"/>
<rect width="488.133" height="33.5221" transform="matrix(0.702905 -0.711283 0.702905 0.711283 -139.077 205.311)" fill="#94D652"/>
<rect width="488.133" height="33.5221" transform="matrix(0.702905 -0.711283 0.702905 0.711283 -115.628 229.038)" fill="#FE8C25"/>
<rect width="488.133" height="33.5221" transform="matrix(0.702905 -0.711283 0.702905 0.711283 -92.1807 252.766)" fill="#E33E45"/>
<rect width="488.133" height="33.5221" transform="matrix(0.702905 -0.711283 0.702905 0.711283 -68.7332 276.492)" fill="#FF9BCB"/>
<rect width="488.133" height="33.5221" transform="matrix(0.702905 -0.711283 0.702905 0.711283 -45.2849 300.22)" fill="#5E2779"/>
<path d="M97.9076 30.083C118.904 30.083 129.401 37.8654 129.401 53.4303C129.401 56.8045 128.694 59.9066 127.28 62.7365C125.975 65.4577 124.452 67.6346 122.711 69.2672C120.97 70.7911 119.012 72.0972 116.837 73.1857C113.464 74.8183 110.799 75.798 108.841 76.1245C111.125 76.6687 113.736 77.7572 116.673 79.3898C119.719 80.9137 122.167 82.5463 124.017 84.2879C125.866 85.9205 127.498 88.2607 128.912 91.3084C130.435 94.2472 131.196 97.5125 131.196 101.104C131.196 111.009 127.552 118.139 120.263 122.493C112.975 126.846 101.389 129.023 85.5058 129.023H35.8989L27.5767 30.083H97.9076ZM81.1 88.3696H73.2673L70.8196 112.533H76.8573C81.3175 112.533 84.9075 111.336 87.6272 108.941C90.3469 106.547 91.7067 103.39 91.7067 99.4718C91.7067 95.5533 90.6732 92.7234 88.6063 90.9818C86.5393 89.2403 84.0372 88.3696 81.1 88.3696ZM79.6313 69.4305C83.4389 69.4305 86.6481 68.3421 89.259 66.1652C91.8699 63.9883 93.1753 61.1039 93.1753 57.512C93.1753 50.437 89.0958 46.8996 80.9368 46.8996H77.3468L75.0623 69.4305H79.6313Z" fill="white"/>
</g>
<defs>
<clipPath id="clip0_173_344">
<rect width="158.939" height="158.939" rx="33.4257" fill="white"/>
</clipPath>
</defs>
</svg>
