<svg width="24" height="29" viewBox="0 0 24 29" fill="none" xmlns="http://www.w3.org/2000/svg">
<path d="M12 18.8333V21.7222M4.125 27.5H19.875C20.5712 27.5 21.2389 27.1956 21.7312 26.6539C22.2234 26.1121 22.5 25.3773 22.5 24.6111V15.9444C22.5 15.1783 22.2234 14.4435 21.7312 13.9017C21.2389 13.3599 20.5712 13.0556 19.875 13.0556H4.125C3.42881 13.0556 2.76113 13.3599 2.26884 13.9017C1.77656 14.4435 1.5 15.1783 1.5 15.9444V24.6111C1.5 25.3773 1.77656 26.1121 2.26884 26.6539C2.76113 27.1956 3.42881 27.5 4.125 27.5ZM17.25 13.0556V7.27778C17.25 5.74542 16.6969 4.27582 15.7123 3.19227C14.7277 2.10873 13.3924 1.5 12 1.5C10.6076 1.5 9.27226 2.10873 8.28769 3.19227C7.30312 4.27582 6.75 5.74542 6.75 7.27778V13.0556H17.25Z" stroke="black" stroke-width="3" stroke-linecap="round" stroke-linejoin="round"/>
</svg>
