<svg width="247" height="106" viewBox="0 0 247 106" fill="none" xmlns="http://www.w3.org/2000/svg">
<g filter="url(#filter0_d_292_302)">
<path d="M21.0964 11.242C21.0964 13.0562 20.0536 13.8719 18.6805 13.8719H17.2269V2.84095H18.7047C20.122 2.84095 21.0964 3.81499 21.0964 5.3491V11.242ZM24.37 10.5967V6.0431C24.37 2.66237 22.6668 0.158281 18.6845 0.158281H13.9211V16.4897H18.7047C22.397 16.4897 24.37 14.0789 24.37 10.5967ZM33.917 16.4897H26.3551V0.174515H33.7358V2.85718H29.6367V6.66811H33.6069V9.42789H29.6367V13.8922H33.917V16.4897ZM38.2696 16.4897V2.84095H34.988V0.174515H44.7081L44.6839 2.85718H41.4345V16.4897H38.2696ZM58.0198 11.242C58.0198 13.0562 56.9488 13.8719 55.6039 13.8719H54.1382V2.84095H55.6281C57.0172 2.84095 58.0239 3.81499 58.0239 5.3491L58.0198 11.242ZM61.2773 10.5967V6.0431C61.2773 2.66237 59.562 0.158281 55.5999 0.158281H50.8325V16.4897H55.624C59.3043 16.4897 61.2773 14.0789 61.2773 10.5967ZM66.3105 10.199L67.3534 3.58771L68.5976 10.199H66.3105ZM69.1049 12.9628L69.7612 16.4897H72.9825L69.7169 0.174515H65.2596L61.8974 16.5059H65.3441L65.8957 12.9791L69.1049 12.9628ZM74.4562 16.4897V0.174515H78.2653L81.9979 10.7266V0.174515H84.9453V16.4897H81.0315L77.315 5.93758V16.4897H74.4562ZM91.5609 16.6723C88.3397 16.6723 86.7532 15.2924 86.7532 12.1187V11.1081H89.9745V12.0253C89.9745 13.2956 90.2604 14.1033 91.5448 14.1033C92.2696 14.1033 93.0387 13.7867 93.0387 12.4515C93.0387 8.79882 86.7895 10.0894 86.7895 4.79309C86.7895 2.30929 88.4001 0 91.5448 0C94.6251 0 96.3082 1.6234 96.3082 4.76062V5.85641H93.0387V4.81338C93.0387 3.25492 92.4266 2.68267 91.569 2.68267C90.51 2.68267 89.9946 3.25492 89.9946 4.36289C89.9946 7.75985 96.3082 6.46113 96.3082 12.0091C96.3002 15.5968 93.7312 16.6723 91.5609 16.6723ZM101.345 16.4897H98.092V0.174515H101.345V7.5204L104.522 0.174515H108.247L104.394 8.07235L108.517 16.5059H104.824L101.345 8.88811V16.4897ZM117.17 16.4897H109.628V0.174515H116.964V2.85718H112.938V6.66811H116.852V9.42789H112.938V13.8922H117.182L117.17 16.4897ZM128.605 2.84095V6.66811H132.587V9.42789H128.605V16.4897H125.36V0.174515H133.618V2.85718L128.605 2.84095ZM138.192 0.174515V16.4897H134.971V0.174515H138.192ZM140.23 16.4897V0.174515H143.427V13.8882H148.11V16.5059L140.23 16.4897ZM160.813 16.4897V3.71353L158.091 16.4897H154.842L152.35 3.58771V16.4897H149.442V0.174515H154.596L156.61 11.9442L158.623 0.174515H163.709V16.4897H160.813ZM168.891 0.174515V16.4897H165.669V0.174515H168.891ZM170.948 16.4897V0.174515H174.81L178.53 10.7266V0.174515H181.429V16.4897H177.544L173.831 5.93758V16.4897H170.948ZM188.001 16.6723C184.86 16.6723 183.237 15.2924 183.237 12.1187V11.1081H186.458V12.0253C186.458 13.2956 186.732 14.1033 187.964 14.1033C188.733 14.1033 189.515 13.7867 189.515 12.4515C189.515 8.79882 183.249 10.0894 183.249 4.79309C183.249 2.30929 184.92 0 187.964 0C191.133 0 192.756 1.6234 192.756 4.76062V5.85641H189.523V4.81338C189.523 3.25492 188.899 2.68267 188.001 2.68267C186.958 2.68267 186.487 3.25492 186.487 4.36289C186.487 7.75985 192.764 6.46113 192.764 12.0091C192.784 15.5968 190.276 16.6723 188.001 16.6723ZM197.008 16.4897V2.84095H193.759V0.174515H203.459L203.434 2.85718H200.213V16.4897H197.008ZM208.037 0.174515V16.4897H204.815V0.174515H208.037ZM212.627 16.4897V2.84095H209.361V0.174515H219.086L219.061 2.85718H215.84V16.4897H212.627ZM225.713 16.6723C222.593 16.6723 220.398 15.0489 220.398 11.0148V0.174515H223.712V11.4368C223.712 13.5351 224.36 14.0546 225.689 14.0546C227.018 14.0546 227.674 13.5351 227.674 11.4368V0.174515H230.916V11.0066C230.916 15.0327 228.794 16.6723 225.713 16.6723ZM235.518 16.4897V2.84095H232.196V0.174515H242.194V2.85718H238.973V16.4897H235.518ZM225.762 56.5876V34.9558L233.549 56.5876H241.868V23.0807H235.667V44.6516L227.815 23.0807H219.557V56.5876H225.762ZM217.153 51.0113H208.158V41.9365H216.48V36.3641H208.158V28.653H216.718V23.0807H201.284V56.5876H217.153V51.0113ZM198.8 28.6692V23.0807H181.248V56.5876H188.125V41.9365H196.638V36.3641H188.125V28.653L198.8 28.6692ZM178.768 28.6692V23.0807H161.216V56.5876H168.089V41.9365H176.601V36.3641H168.089V28.653L178.768 28.6692ZM150.505 56.5876H157.351V23.0807H150.505V56.5876ZM148.09 46.7945C148.09 42.6264 146.217 40.3496 142.452 39.0428C145.915 37.9754 146.974 34.7286 146.974 31.9647C146.974 27.1189 144.135 23.0929 138.269 23.0929H128.323V56.5876H138.853C145.972 56.5876 148.086 51.547 148.086 46.7945M135.007 51.2061V41.7417H136.449C139.384 41.7417 141.353 43.0525 141.353 46.348C141.353 49.4 140.729 51.1939 136.69 51.1939L135.007 51.2061ZM135.007 36.5671V28.4622H135.921C138.998 28.4622 140.294 29.6798 140.294 32.4355C140.294 35.1912 139.336 36.5549 136.159 36.5549L135.007 36.5671ZM125.436 51.0113H116.445V41.9365H124.764V36.3641H116.445V28.653H125.005V23.0807H109.568V56.5876H125.436V51.0113ZM90.1073 56.5876V34.9558L97.8826 56.5876H106.214V23.0807H99.9965V44.6516L92.1609 23.0807H83.8863V56.5876H90.1073ZM75.7769 40.9787C78.8532 39.8179 81.1161 36.3276 81.1161 32.399C81.1161 27.5531 78.2774 23.0929 71.8832 23.0929H61.1404V56.5876H67.8285V42.0339H69.27L74.3193 56.5876H81.9697L75.7769 40.9787ZM67.8446 36.5671V28.511H69.8579C73.1757 28.511 74.6656 29.6717 74.6656 32.2407C74.6656 34.8097 73.6589 36.5549 69.8579 36.5549L67.8446 36.5671ZM42.5015 46.2628V33.5029C42.5015 29.5783 44.088 28.2674 46.971 28.2674C47.8939 28.2224 48.8108 28.4404 49.6164 28.8965L42.5015 46.2628ZM51.3599 32.2529C51.402 32.6722 51.4182 33.0937 51.4082 33.5151V46.1654C51.4082 50.2239 49.8218 51.4009 46.9348 51.4009C45.6382 51.4009 44.5792 51.1574 43.8585 50.4796L51.3599 32.2529ZM52.8498 21.1082L51.8431 23.6286C50.2752 23.032 48.6105 22.7361 46.9348 22.756C40.299 22.756 35.3947 26.9241 35.3947 34.9315V44.818C35.3947 49.1809 36.8362 52.379 39.1917 54.3676L37.7019 58H40.7822L41.6479 55.918C43.3389 56.62 45.1546 56.9653 46.9831 56.9326C53.6228 56.9326 58.5272 52.9593 58.5272 44.7571V34.8584C58.5272 30.3535 56.9367 27.058 54.3436 25.0206L55.9301 21.0961L52.8498 21.1082ZM33.7116 46.7945C33.7116 42.6264 31.8352 40.3496 28.0744 39.0428C31.5373 37.9754 32.5922 34.7286 32.5922 31.9647C32.5922 27.1189 29.7736 23.0929 23.8909 23.0929H13.9211V56.5876H24.4506C31.5695 56.5876 33.6834 51.547 33.6834 46.7945M20.6052 51.2061V41.7417H22.0588C24.9901 41.7417 26.9631 43.0525 26.9631 46.348C26.9631 49.4 26.339 51.1939 22.3004 51.1939L20.6052 51.2061ZM20.6052 36.5671V28.4622H21.5152C24.5955 28.4622 25.8921 29.6798 25.8921 32.4355C25.8921 35.1912 24.9297 36.5549 21.7568 36.5549L20.6052 36.5671Z" fill="black"/>
<path d="M212.34 97.7779V83.2274H232.189V97.7779H229.031L229.031 86.4103H215.497L215.497 97.7779H212.34ZM209.632 83.2274L209.633 86.4103L195.59 86.4112V89.1385H209.633V92.3214H195.59V94.595H209.633V97.7779H192.432V83.2287L209.632 83.2274ZM187.29 83.2274V88.9112H190.234V97.5533H170.385V83.2274H187.29ZM173.543 92.0941V94.3699H187.077V92.0941H173.543ZM184.132 86.4103H173.543V88.9112H184.132V86.4103ZM167.678 83.2274V97.5533H164.52V83.2274H167.678ZM144.671 92.0941V97.5505H141.513V83.2274H159.107V88.9112H161.814V97.5505H158.656V92.0941H144.671ZM155.949 86.4103H144.671V88.9112H155.949V86.4103ZM118.772 83.2274H139.442V86.4103H131.145L131.145 97.5505H127.987L127.987 86.4103H118.772V83.2274ZM116.247 83.2274L116.248 86.4103L99.0492 86.4112V88.5629H116.276V97.481H96.0699V94.298L113.118 94.2976V91.7458H95.8917V83.2287L116.247 83.2274ZM71.1376 83H93.2427V97.5505H90.0849L90.0844 86.1829H83.7687L83.7691 97.5505H80.6113L80.6108 86.1829H74.2951L74.2955 97.5505H71.1376V83ZM52.6416 83.2274L52.6411 94.3699L67.9861 94.3703V97.5533H49.4837V83.2274H52.6416ZM47.2281 83.2274V97.5533H44.0702V83.2274H47.2281ZM41.1487 83.2274V86.4103H24.2203V88.4974H41.1487V91.6803H24.2203L24.2207 97.5533H21.0629V83.2274H41.1487ZM6.88268 83.2574V85.9856H4V83.2574H6.88268ZM12.6607 83.2574V85.9856H9.77574V83.2574H12.6607ZM18.4351 83.2574V85.9856H15.5501V83.2574H18.4351Z" fill="black"/>
</g>
<defs>
<filter id="filter0_d_292_302" x="0" y="0" width="246.194" height="105.778" filterUnits="userSpaceOnUse" color-interpolation-filters="sRGB">
<feFlood flood-opacity="0" result="BackgroundImageFix"/>
<feColorMatrix in="SourceAlpha" type="matrix" values="0 0 0 0 0 0 0 0 0 0 0 0 0 0 0 0 0 0 127 0" result="hardAlpha"/>
<feOffset dy="4"/>
<feGaussianBlur stdDeviation="2"/>
<feComposite in2="hardAlpha" operator="out"/>
<feColorMatrix type="matrix" values="0 0 0 0 0 0 0 0 0 0 0 0 0 0 0 0 0 0 0.25 0"/>
<feBlend mode="normal" in2="BackgroundImageFix" result="effect1_dropShadow_292_302"/>
<feBlend mode="normal" in="SourceGraphic" in2="effect1_dropShadow_292_302" result="shape"/>
</filter>
</defs>
</svg>
