<svg width="39" height="39" viewBox="0 0 39 39" fill="none" xmlns="http://www.w3.org/2000/svg">
<path d="M24.827 17.5096L18.2988 13.1578C16.9421 12.2533 15.125 13.2262 15.125 14.8564V23.5601C15.125 25.1903 16.9421 26.1632 18.2998 25.2587L24.827 20.9069C25.1066 20.7205 25.3359 20.4679 25.4945 20.1716C25.653 19.8752 25.736 19.5443 25.736 19.2083C25.736 18.8722 25.653 18.5413 25.4945 18.245C25.3359 17.9486 25.1066 17.696 24.827 17.5096Z" stroke="white" stroke-width="1.66667" stroke-linecap="round" stroke-linejoin="round"/>
<path d="M37.5833 19.208C37.5833 29.3561 29.3564 37.583 19.2083 37.583C9.06015 37.583 0.833252 29.3561 0.833252 19.208C0.833252 9.0599 9.06015 0.833008 19.2083 0.833008C29.3564 0.833008 37.5833 9.0599 37.5833 19.208Z" stroke="white" stroke-width="1.66667" stroke-linecap="round" stroke-linejoin="round"/>
</svg>
