<svg width="22" height="23" viewBox="0 0 22 23" fill="none" xmlns="http://www.w3.org/2000/svg">
<path d="M20.5 21.5L14.1667 14.8333M16.2778 9.27778C16.2778 10.2992 16.0867 11.3106 15.7153 12.2542C15.344 13.1978 14.7997 14.0553 14.1136 14.7775C13.4275 15.4997 12.613 16.0726 11.7165 16.4635C10.82 16.8544 9.85921 17.0556 8.88889 17.0556C7.91857 17.0556 6.95775 16.8544 6.06128 16.4635C5.16482 16.0726 4.35028 15.4997 3.66416 14.7775C2.97803 14.0553 2.43377 13.1978 2.06245 12.2542C1.69112 11.3106 1.5 10.2992 1.5 9.27778C1.5 7.21498 2.27847 5.23667 3.66416 3.77806C5.04984 2.31944 6.92923 1.5 8.88889 1.5C10.8485 1.5 12.7279 2.31944 14.1136 3.77806C15.4993 5.23667 16.2778 7.21498 16.2778 9.27778Z" stroke="#5E2779" stroke-width="3" stroke-linecap="round" stroke-linejoin="round"/>
</svg>
