<svg width="188" height="51" viewBox="0 0 188 51" fill="none" xmlns="http://www.w3.org/2000/svg">
<path d="M5.49871 12.6117V6.01482H6.24377C8.77775 6.01482 9.84878 7.00823 9.84878 9.25894C9.84878 11.5096 9.05327 12.6117 6.43003 12.6117H5.49871ZM5.49871 24.5521V16.8454H6.68615C9.09596 16.8454 10.718 17.9048 10.718 20.6017C10.718 23.093 10.1864 24.5521 6.88017 24.5521H5.49871ZM16.2827 20.9548C16.2827 17.5555 14.7305 15.6929 11.6571 14.6296C14.5015 13.7565 15.3552 11.1061 15.3552 8.85536C15.3552 4.89723 13.0269 1.61818 8.19567 1.61818H0V28.9448H8.66134C14.5171 28.9448 16.2788 24.8276 16.2788 20.9548H16.2827ZM31.9988 0L31.1645 2.05668C29.8777 1.56485 28.5102 1.3187 27.1326 1.33102C21.6727 1.33102 17.637 4.73036 17.637 11.2574V19.3405C17.637 22.9029 18.8244 25.5067 20.7647 27.1288L19.5385 30.0974H22.0647L22.7826 28.3977C24.1719 28.9721 25.6644 29.2548 27.1676 29.2281C32.6275 29.2281 36.6632 25.984 36.6632 19.2979V11.2225C36.6632 7.53986 35.3555 4.8623 33.2212 3.18979L34.5289 0.0116416L31.9988 0ZM30.7726 9.08819C30.8056 9.44016 30.8172 9.79445 30.8075 10.1476V20.4426C30.8075 23.7643 29.5075 24.7112 27.1326 24.7112C26.2232 24.7894 25.3179 24.5204 24.5987 23.9584L30.7726 9.08819ZM23.5044 20.5357V10.1204C23.5044 6.9151 24.8082 5.85183 27.1792 5.85183C27.9418 5.81967 28.6979 6.00398 29.3601 6.38347L23.5044 20.5357ZM44.3738 12.6272V6.04586H46.0114C48.7278 6.04586 49.9696 6.99659 49.9696 9.08819C49.9696 11.1798 49.1158 12.6117 46.0114 12.6117L44.3738 12.6272ZM50.9009 16.2245C53.4271 15.2776 55.2898 12.4332 55.2898 9.23953C55.2898 5.2814 52.9614 1.64534 47.6956 1.64534H38.848V28.972H44.3738V17.0782H45.5613L49.6707 28.9448H55.9766L50.9009 16.2245ZM62.686 28.941V11.3079L69.0617 28.9448H75.8915V1.61818H70.7963V19.2125L64.3469 1.61818H57.5443V28.9448L62.686 28.941ZM91.7551 24.3891H84.3277V16.9579H91.1652V12.4526H84.32V6.1778H91.3593V1.61818H78.6428V28.9448H91.6969L91.7551 24.3891ZM99.5976 12.6272V6.03034H100.339C102.873 6.03034 103.936 7.02375 103.936 9.27446C103.936 11.5252 103.16 12.6389 100.525 12.6389L99.5976 12.6272ZM99.5976 24.5715V16.8454H100.785C103.195 16.8454 104.817 17.9048 104.817 20.6017C104.817 23.093 104.285 24.5521 100.979 24.5521L99.5976 24.5715ZM110.354 20.9704C110.354 17.571 108.802 15.7123 105.729 14.6451C108.577 13.772 109.435 11.1216 109.435 8.87089C109.435 4.91275 107.106 1.6337 102.279 1.6337H94.0873V28.9604H102.749C108.6 28.9604 110.339 24.8431 110.339 20.9704H110.354ZM112.322 28.9604H117.976V1.61818H112.322V28.9604ZM135.574 6.1778V1.61818H121.138V28.9448H126.796V16.9967H133.781V12.4526H126.796V6.1778H135.574ZM152.187 6.1778V1.61818H137.747V28.9448H143.413V16.9967H150.398V12.4526H143.413V6.1778H152.187ZM167.414 24.4163H159.998V16.9773H166.859V12.4526H160.017V6.1778H167.061V1.61818H154.344V28.9448H167.394L167.414 24.4163ZM174.492 28.9681V11.3079L180.899 28.9448H187.744V1.61818H182.645V19.2125L176.191 1.61818H169.412V28.9448L174.492 28.9681ZM2.81338 47.9866C2.42357 47.9879 2.03428 47.9581 1.64922 47.8973C1.33296 47.8485 1.02058 47.777 0.714017 47.6839C0.518718 47.6265 0.330094 47.5485 0.151341 47.4511L0.450141 46.1589C0.638347 46.2644 0.835866 46.3525 1.03998 46.4227C1.29338 46.5128 1.5526 46.5853 1.81609 46.6401C2.10125 46.6954 2.39096 46.724 2.68144 46.7254C3.10544 46.7519 3.52848 46.6605 3.90381 46.4615C4.0438 46.3673 4.15609 46.2375 4.22908 46.0853C4.30208 45.9332 4.33313 45.7643 4.31903 45.5962C4.32691 45.3528 4.25315 45.1137 4.10948 44.9171C3.92701 44.7036 3.70747 44.5248 3.46143 44.3893C3.17039 44.2225 2.80562 44.0323 2.36324 43.8228C1.98081 43.6381 1.61696 43.4172 1.27669 43.1631C0.948691 42.9162 0.66746 42.6126 0.446261 42.2667C0.243168 41.9147 0.13017 41.518 0.117308 41.1118C0.104445 40.7056 0.192116 40.3025 0.372531 39.9384C0.540945 39.6377 0.780846 39.3831 1.07103 39.1972C1.37721 39.001 1.71441 38.8579 2.06832 38.7742C2.92687 38.5898 3.81624 38.6044 4.66827 38.8169C4.95078 38.8899 5.22319 38.9981 5.4793 39.139L5.18438 40.3885C4.94197 40.2359 4.68119 40.1147 4.40828 40.0276C4.03218 39.9081 3.63858 39.853 3.24412 39.8647C2.97065 39.8611 2.6983 39.9004 2.43697 39.9811C2.21775 40.0404 2.01821 40.1569 1.85877 40.3187C1.78552 40.3947 1.72848 40.4848 1.69113 40.5835C1.65377 40.6822 1.63687 40.7875 1.64146 40.893C1.6337 41.1278 1.69424 41.3598 1.81609 41.5604C1.96122 41.7739 2.15369 41.9504 2.37876 42.0766C2.63488 42.2357 2.9686 42.4219 3.38382 42.6392C3.70978 42.7983 4.02023 42.9691 4.32291 43.1476C4.61302 43.3203 4.88591 43.5204 5.13782 43.7452C5.37286 43.9563 5.5652 44.2105 5.70438 44.4941C5.84834 44.7941 5.92013 45.1239 5.91392 45.4565C5.93109 45.9522 5.79564 46.4412 5.52587 46.8574C5.257 47.2365 4.88348 47.5292 4.45096 47.6994C3.92919 47.9015 3.37279 47.9991 2.81338 47.9866ZM10.1515 47.9866C9.71783 48.0142 9.28353 47.9442 8.88057 47.7817C8.4776 47.6192 8.11625 47.3683 7.82314 47.0475C7.24266 46.3097 6.95273 45.3847 7.00823 44.4476C6.99713 43.8317 7.12167 43.221 7.373 42.6586C7.60428 42.15 7.97582 41.7179 8.44403 41.413C8.96493 41.0927 9.56727 40.9296 10.1786 40.9434C10.514 40.9338 10.8486 40.981 11.1682 41.0831C11.4714 41.1859 11.7511 41.3482 11.9908 41.5604C12.2416 41.7905 12.4389 42.0726 12.569 42.387C12.7208 42.7657 12.7972 43.1705 12.7941 43.5783V44.2691C12.7933 44.4504 12.7738 44.6311 12.7359 44.8084H7.89299L8.01717 43.8732H11.3311C11.3527 43.5666 11.3318 43.2584 11.2691 42.9574C11.2235 42.7009 11.0971 42.4656 10.9082 42.2861C10.6827 42.1021 10.3951 42.0118 10.1049 42.0339C9.81079 42.0281 9.52254 42.1165 9.28222 42.2861C9.00762 42.5078 8.81279 42.8129 8.72731 43.1553C8.58373 43.7044 8.5294 44.2729 8.56432 44.8395C8.56528 45.2459 8.66658 45.6458 8.85924 46.0036C9.02259 46.2781 9.26839 46.494 9.56162 46.6207C9.874 46.7487 10.2097 46.8123 10.5473 46.8069C10.7475 46.805 10.947 46.7883 11.1449 46.7565C11.3672 46.7258 11.5873 46.6816 11.8046 46.6245C11.9722 46.5853 12.1344 46.524 12.2857 46.4421L12.5729 47.3308C12.3846 47.4728 12.1751 47.5841 11.952 47.6606C11.6699 47.7596 11.3804 47.836 11.0867 47.8896C10.7786 47.9505 10.4658 47.9831 10.1515 47.9866ZM22.5187 41.0288L18.0056 45.7592L18.1143 45.4099L18.1415 46.5741V47.8702H16.5893V37.9011H18.1415V42.8527L18.0716 44.5446L17.7495 44.3001L20.6754 41.0288H22.5187ZM18.8167 44.595L19.8761 43.555L22.7865 47.8741H21.0092L18.8167 44.595ZM26.2751 47.9866C25.7737 48.0017 25.2757 47.9008 24.8199 47.6917C24.4351 47.5064 24.1019 47.2292 23.8497 46.8845C23.5985 46.5342 23.4167 46.1391 23.3142 45.7204C23.2013 45.2635 23.1478 44.7939 23.1551 44.3234C23.1449 43.679 23.297 43.0425 23.5975 42.4724C23.8656 41.9873 24.2704 41.5919 24.7616 41.3354C25.2712 41.0726 25.8376 40.9393 26.4109 40.9473C27.0641 40.9132 27.7107 41.0916 28.2541 41.4557C28.7123 41.7927 29.0573 42.2609 29.2437 42.7983C29.4493 43.3769 29.5483 43.9885 29.5347 44.6028C29.5445 45.2496 29.3924 45.8885 29.0923 46.4615C28.826 46.9489 28.4207 47.346 27.9282 47.6024C27.4177 47.8663 26.8495 47.9983 26.2751 47.9866ZM26.3177 46.8806C26.5548 46.8989 26.7924 46.8518 27.0045 46.7444C27.2166 46.6369 27.3952 46.4733 27.5207 46.2714C27.811 45.7413 27.9455 45.14 27.9088 44.5368C27.9135 44.1173 27.8586 43.6992 27.7458 43.295C27.6607 42.9574 27.488 42.6482 27.2452 42.3986C27.1272 42.2855 26.9878 42.197 26.8353 42.1384C26.6827 42.0797 26.5199 42.0521 26.3565 42.0572C26.1224 42.0384 25.8875 42.0825 25.676 42.1848C25.4645 42.2871 25.2842 42.444 25.1536 42.6392C24.8618 43.1589 24.727 43.752 24.7655 44.3467C24.7599 44.7711 24.8135 45.1943 24.9246 45.604C25.0131 45.9548 25.1924 46.2757 25.4446 46.5353C25.5598 46.6481 25.6964 46.7368 25.8463 46.7961C25.9963 46.8554 26.1565 46.8841 26.3177 46.8806ZM30.9744 47.8896V41.0405H32.3248L32.4218 41.9757L32.546 42.4336V47.8896H30.9744ZM32.4606 43.0428L32.3714 41.9757C32.4632 41.7916 32.5959 41.631 32.7594 41.5061C32.971 41.3358 33.2063 41.1972 33.4579 41.0948C33.7227 40.9861 34.006 40.9295 34.2922 40.9279C34.4215 40.9213 34.551 40.9213 34.6803 40.9279C34.7656 40.9326 34.8495 40.9566 34.9247 40.9978V42.4918C34.8375 42.4448 34.745 42.4083 34.6492 42.3831C34.4576 42.3366 34.2603 42.3171 34.0633 42.3249C33.8215 42.3205 33.5809 42.36 33.3531 42.4413C33.162 42.5063 32.9816 42.5991 32.8176 42.7168C32.688 42.8131 32.5681 42.9225 32.4606 43.0428ZM38.1611 47.9866C37.8473 47.9943 37.5353 47.9362 37.2453 47.8159C36.9871 47.6962 36.7785 47.4904 36.6555 47.2338C36.5025 46.875 36.4322 46.4864 36.4498 46.0968V42.1542H35.5806V41.3121C35.8871 41.2267 36.1199 41.1491 36.2907 41.0831C36.3795 41.0503 36.4602 40.9986 36.5272 40.9316C36.5942 40.8646 36.6459 40.7839 36.6787 40.6951C36.7137 40.602 36.7486 40.4933 36.7913 40.3691C36.834 40.2449 36.8844 40.1052 36.9349 39.9539L37.0978 39.4688H38.0408V41.0211H39.9384V42.1464H38.0408V45.3246C38.0315 45.6466 38.0525 45.9687 38.1029 46.2869C38.1079 46.3646 38.1308 46.44 38.1699 46.5074C38.2089 46.5747 38.263 46.6321 38.328 46.675C38.4805 46.7367 38.6446 46.7646 38.8092 46.7565C38.9395 46.7553 39.0691 46.7425 39.1972 46.7177C39.3385 46.6912 39.4784 46.6576 39.6163 46.6168C39.7238 46.5846 39.8278 46.5419 39.9267 46.4887L40.1673 47.3812C40.0137 47.4984 39.8453 47.5951 39.6668 47.6684C39.4386 47.7642 39.2019 47.8395 38.9605 47.8935C38.6984 47.9545 38.4302 47.9857 38.1611 47.9866ZM41.9136 47.8896V42.1619H40.9318V41.2694L41.9136 41.0288V40.4079C41.9004 39.9736 41.9784 39.5413 42.1425 39.139C42.2792 38.8257 42.4879 38.5491 42.7518 38.3318C42.9937 38.1336 43.2737 37.987 43.5744 37.9011C43.8573 37.8208 44.1497 37.779 44.4437 37.7769C44.6516 37.7752 44.8593 37.7908 45.0646 37.8235C45.1957 37.8402 45.3253 37.8662 45.4526 37.9011V39.0653C45.3262 39.0238 45.1964 38.9939 45.0646 38.976C44.8652 38.9496 44.6642 38.938 44.4631 38.9411C44.3322 38.9379 44.2024 38.9645 44.0834 39.019C43.9644 39.0734 43.8593 39.1543 43.7762 39.2554C43.577 39.532 43.4822 39.8702 43.5085 40.21V41.0172H45.1461V42.1503H43.5085V47.8779L41.9136 47.8896ZM47.2338 39.8957C46.9867 39.9007 46.7468 39.812 46.5624 39.6473C46.4689 39.5664 46.3948 39.4654 46.3457 39.3519C46.2967 39.2383 46.2739 39.1151 46.2792 38.9915C46.278 38.8072 46.3335 38.6268 46.4383 38.4754C46.5372 38.3241 46.6699 38.198 46.8263 38.1068C46.9846 38.0156 47.1639 37.9675 47.3463 37.9671C47.4701 37.9546 47.5951 37.969 47.7128 38.0094C47.8304 38.0498 47.9379 38.1152 48.0279 38.2011C48.1179 38.2871 48.1882 38.3914 48.234 38.5071C48.2798 38.6228 48.3 38.747 48.2932 38.8712C48.2967 39.0087 48.2701 39.1453 48.2151 39.2714C48.1601 39.3974 48.0781 39.5099 47.975 39.6008C47.7751 39.7909 47.5096 39.8965 47.2338 39.8957ZM46.5314 47.8896V41.0405H48.0836V47.8896H46.5314ZM50.2257 47.8896V37.8739H51.8089V47.8896H50.2257ZM53.8928 47.8896V41.0405H55.3247V41.7661C55.5241 41.623 55.7328 41.4934 55.9494 41.3781C56.2089 41.245 56.4805 41.1372 56.7605 41.056C57.0479 40.9692 57.3452 40.9196 57.6452 40.9085C58.0532 40.8769 58.4621 40.956 58.8288 41.1375C59.1447 41.3285 59.3805 41.6277 59.4924 41.9795C59.6495 42.4945 59.7202 43.0323 59.7019 43.5706V47.8702H58.1497V43.718C58.1568 43.419 58.1255 43.1204 58.0566 42.8294C58.0356 42.729 57.9949 42.6338 57.937 42.5493C57.879 42.4647 57.8049 42.3924 57.719 42.3365C57.4975 42.224 57.2481 42.1782 57.0011 42.2046C56.7517 42.2185 56.5058 42.2695 56.2715 42.356C55.9906 42.4534 55.7283 42.5977 55.4954 42.7828V47.8702L53.8928 47.8896ZM59.6243 42.8139L59.3061 41.8282C59.4964 41.6779 59.7019 41.5479 59.9192 41.4401C60.1954 41.2943 60.4852 41.176 60.7846 41.087C61.1034 40.992 61.4337 40.9411 61.7664 40.9357C62.1771 40.9128 62.5869 40.9942 62.9577 41.1724C63.2838 41.354 63.5312 41.6498 63.6523 42.0028C63.8234 42.5139 63.9006 43.0513 63.8812 43.59V47.8973H62.3096V43.7452C62.3163 43.4452 62.2863 43.1454 62.2204 42.8527C62.1791 42.6526 62.0606 42.4769 61.8905 42.3637C61.6704 42.2512 61.4223 42.2054 61.1765 42.2318C60.9095 42.2437 60.6468 42.3029 60.4004 42.4064C60.1252 42.5081 59.8643 42.6451 59.6243 42.8139ZM68.0877 47.8896V41.0405H69.5041V41.7661C69.7037 41.6233 69.9124 41.4936 70.1289 41.3781C70.3894 41.2445 70.6624 41.1367 70.9438 41.056C71.2298 40.969 71.5259 40.9194 71.8247 40.9085C72.2262 40.8805 72.6279 40.9595 72.9888 41.1375C73.3046 41.3287 73.5403 41.6279 73.6524 41.9795C73.8096 42.4949 73.8802 43.0323 73.862 43.5706V47.8702H72.3098V43.718C72.3169 43.419 72.2855 43.1204 72.2166 42.8294C72.1956 42.729 72.155 42.6338 72.097 42.5493C72.0391 42.4647 71.965 42.3924 71.879 42.3365C71.6589 42.224 71.4108 42.1782 71.165 42.2046C70.9143 42.2181 70.6671 42.2691 70.4316 42.356C70.1438 42.4514 69.8747 42.5958 69.6361 42.7828V47.8702L68.0877 47.8896ZM73.8193 42.8139L73.5011 41.8282C73.6924 41.6773 73.8992 41.5472 74.1181 41.4401C74.3938 41.2935 74.6838 41.1752 74.9834 41.087C75.3022 40.9916 75.6325 40.9407 75.9652 40.9357C76.3747 40.9128 76.7832 40.9943 77.1526 41.1724C77.4713 41.3552 77.7127 41.6475 77.8317 41.9951C78.0025 42.5061 78.0801 43.0436 78.0607 43.5822V47.8896H76.4852V43.7374C76.491 43.4376 76.4623 43.1382 76.3998 42.8449C76.3583 42.6449 76.2399 42.4693 76.07 42.356C75.8484 42.2438 75.5991 42.198 75.3521 42.224C75.0851 42.2362 74.8224 42.2953 74.576 42.3986C74.3071 42.5043 74.0528 42.6438 73.8193 42.8139ZM82.7755 47.9866C82.342 48.0135 81.9079 47.9431 81.5051 47.7806C81.1022 47.6181 80.7408 47.3676 80.4472 47.0475C79.8667 46.3097 79.5768 45.3847 79.6323 44.4476C79.6235 43.8319 79.7479 43.2217 79.9971 42.6586C80.2287 42.1491 80.6018 41.7167 81.072 41.413C81.5917 41.0932 82.1926 40.9302 82.8027 40.9434C83.1381 40.9338 83.4726 40.981 83.7922 41.0831C84.0972 41.1848 84.3782 41.347 84.6188 41.5604C84.8682 41.7908 85.0642 42.0729 85.1931 42.387C85.3464 42.7653 85.424 43.1701 85.422 43.5783V44.2691C85.4205 44.4501 85.4023 44.6307 85.3677 44.8084H80.5171L80.6374 43.8732H83.9513C83.9722 43.5667 83.9526 43.2588 83.8931 42.9574C83.8462 42.7005 83.7184 42.4653 83.5284 42.2861C83.3029 42.1021 83.0153 42.0118 82.7251 42.0339C82.431 42.0285 82.1429 42.1168 81.9024 42.2861C81.629 42.5081 81.4355 42.8133 81.3514 43.1553C81.2043 43.7038 81.1492 44.273 81.1884 44.8395C81.1875 45.2461 81.2889 45.6465 81.4833 46.0036C81.6454 46.2791 81.8916 46.4954 82.1857 46.6207C82.4981 46.7494 82.8335 46.8128 83.1713 46.8069C83.3716 46.805 83.571 46.7879 83.7689 46.7565C83.99 46.7257 84.209 46.6816 84.4248 46.6245C84.5928 46.5861 84.7546 46.5248 84.9059 46.4421L85.197 47.3308C85.0073 47.4728 84.7965 47.5841 84.5722 47.6606C84.2901 47.76 84.001 47.8364 83.7069 47.8896C83.3999 47.9505 83.0883 47.9831 82.7755 47.9866ZM89.2715 47.9866C88.7867 47.9927 88.3102 47.8605 87.8979 47.6056C87.4855 47.3506 87.1544 46.9834 86.9432 46.5469C86.668 45.9725 86.535 45.3403 86.5552 44.7037C86.5392 44.0212 86.6883 43.3449 86.9898 42.7324C87.2576 42.1862 87.6765 41.7283 88.1966 41.413C88.7465 41.0905 89.3755 40.9279 90.0127 40.9434C90.3713 40.9337 90.7291 40.9822 91.0721 41.087C91.2643 41.1396 91.4466 41.2235 91.6115 41.3354L91.1264 42.3327C90.9898 42.2256 90.8282 42.1548 90.6569 42.127C90.4251 42.0855 90.1899 42.066 89.9545 42.0688C89.6358 42.0669 89.3242 42.1631 89.062 42.3443C88.7759 42.5573 88.5554 42.8464 88.4256 43.1786C88.2537 43.6158 88.1706 44.0827 88.1811 44.5523C88.122 45.1411 88.2584 45.7329 88.5692 46.2365C88.7065 46.4113 88.8841 46.5503 89.0868 46.6415C89.2896 46.7328 89.5114 46.7735 89.7333 46.7604C90.0147 46.7646 90.2938 46.7091 90.5521 46.5974C90.7564 46.5147 90.9493 46.4065 91.1264 46.2753L91.3593 47.0514C91.2622 47.1523 91.1303 47.2765 90.9712 47.4394C90.7731 47.6027 90.5505 47.7337 90.3115 47.8275C89.9785 47.9478 89.6252 48.0018 89.2715 47.9866ZM91.2118 47.8896V46.9971L91.1187 46.9389V42.1542L91.1691 42.1192L91.1187 40.633V37.8739H92.6709V47.8896H91.2118ZM99.1746 47.9866C98.703 47.9916 98.2388 47.8682 97.832 47.6296C97.4037 47.3688 97.0611 46.9884 96.8463 46.5353C96.5712 45.9608 96.4381 45.3287 96.4583 44.692C96.4429 44.01 96.5905 43.3342 96.889 42.7207C97.1581 42.1754 97.5766 41.7179 98.0959 41.4013C98.6473 41.0792 99.2774 40.9167 99.9158 40.9318C100.274 40.9221 100.632 40.9706 100.975 41.0754C101.167 41.1279 101.35 41.2119 101.515 41.3237L101.03 42.321C100.892 42.2133 100.729 42.1425 100.556 42.1154C100.326 42.0739 100.092 42.0544 99.8576 42.0572C99.5389 42.0552 99.2273 42.1514 98.9651 42.3327C98.6777 42.5444 98.4569 42.8338 98.3287 43.167C98.1568 43.6041 98.0737 44.0711 98.0842 44.5407C98.0268 45.1293 98.163 45.7207 98.4723 46.2248C98.6101 46.3991 98.7878 46.5377 98.9904 46.6289C99.193 46.72 99.4146 46.7611 99.6364 46.7487C99.9178 46.7526 100.197 46.6971 100.455 46.5857C100.659 46.503 100.852 46.3948 101.03 46.2636L101.262 47.0397C101.165 47.1406 101.03 47.2648 100.874 47.4278C100.675 47.5918 100.451 47.7228 100.211 47.8159C99.88 47.9403 99.5279 47.9983 99.1746 47.9866ZM101.115 47.8896V46.9971L101.022 46.9389V42.1542L101.072 42.1192L101.022 40.633V37.8739H102.574V47.8896H101.115ZM107.324 47.9866C106.89 48.0131 106.456 47.9426 106.053 47.7802C105.651 47.6177 105.289 47.3674 104.995 47.0475C104.415 46.3097 104.125 45.3847 104.181 44.4476C104.177 43.83 104.309 43.2191 104.569 42.6586C104.799 42.1492 105.17 41.7168 105.64 41.413C106.16 41.0926 106.763 40.9296 107.374 40.9434C107.708 40.934 108.042 40.9812 108.36 41.0831C108.665 41.1848 108.946 41.347 109.186 41.5604C109.436 41.7908 109.632 42.0729 109.761 42.387C109.914 42.7653 109.992 43.1701 109.99 43.5783V44.2691C109.99 44.4503 109.972 44.6311 109.935 44.8084H105.046L105.166 43.8732H108.488C108.513 43.5668 108.493 43.2583 108.43 42.9574C108.384 42.7008 108.258 42.4655 108.069 42.2861C107.842 42.1049 107.555 42.0149 107.266 42.0339C106.971 42.0273 106.683 42.1157 106.443 42.2861C106.168 42.5077 105.973 42.8129 105.888 43.1553C105.741 43.7038 105.686 44.273 105.725 44.8395C105.724 45.2461 105.826 45.6465 106.02 46.0036C106.182 46.2791 106.428 46.4954 106.722 46.6207C107.035 46.7487 107.37 46.8123 107.708 46.8069C107.908 46.805 108.108 46.7879 108.306 46.7565C108.528 46.7254 108.748 46.6816 108.965 46.6245C109.132 46.5865 109.293 46.5248 109.443 46.4421L109.734 47.3308C109.545 47.4719 109.335 47.5831 109.113 47.6606C108.831 47.7596 108.541 47.836 108.247 47.8896C107.943 47.9497 107.634 47.9823 107.324 47.9866ZM113.568 50.8388V49.5776C113.67 49.609 113.775 49.6296 113.882 49.6397C113.989 49.656 114.096 49.6649 114.204 49.6669C114.418 49.6603 114.63 49.6156 114.829 49.5349C115.101 49.4205 115.335 49.2307 115.504 48.9878C115.763 48.606 115.932 48.1711 116.001 47.715L116.086 47.8896H115.422L112.989 41.0288H114.67L116.02 45.2974L116.587 47.2803H116.249L116.753 45.2974L117.887 41.0288H119.571L117.32 48.0875C117.124 48.7731 116.796 49.4138 116.354 49.9734C116.036 50.3682 115.61 50.661 115.127 50.8155C115.001 50.8574 114.871 50.8873 114.739 50.9048C114.611 50.9284 114.481 50.9416 114.351 50.9436C114.265 50.9478 114.178 50.9478 114.091 50.9436L113.765 50.9048C113.697 50.8924 113.63 50.8701 113.568 50.8388ZM120.649 47.8896V41.0405H122.07V41.7778C122.271 41.6352 122.481 41.5056 122.698 41.3897C122.961 41.2573 123.235 41.1482 123.517 41.0637C123.808 40.9737 124.109 40.9228 124.414 40.9124C124.703 40.8772 124.997 40.9105 125.271 41.0095C125.546 41.1086 125.793 41.2707 125.993 41.4828C126.319 41.8814 126.482 42.5826 126.482 43.5861V47.8741H124.899V43.7219C124.931 43.3093 124.854 42.8954 124.674 42.5228C124.522 42.2822 124.212 42.1774 123.735 42.2007C123.576 42.2095 123.419 42.2342 123.265 42.2745C123.081 42.3257 122.9 42.3905 122.726 42.4685C122.541 42.5554 122.367 42.6621 122.206 42.7867V47.8741L120.649 47.8896ZM131.034 50.994C130.256 51.0359 129.483 50.857 128.802 50.4779C128.55 50.317 128.345 50.0915 128.208 49.8248C128.072 49.558 128.009 49.2597 128.026 48.9606C128.021 48.7239 128.084 48.4908 128.209 48.2893C128.327 48.0925 128.484 47.9221 128.671 47.7887C128.846 47.654 129.043 47.5493 129.253 47.4782L130.211 47.5985L129.939 47.8353C129.83 47.9306 129.74 48.045 129.672 48.1729C129.589 48.3457 129.55 48.5364 129.559 48.7278C129.554 48.9606 129.606 49.1911 129.711 49.3991C129.818 49.599 129.991 49.7565 130.199 49.8454C130.488 49.9664 130.799 50.022 131.111 50.0083C131.431 50.0114 131.749 49.9723 132.058 49.8919C132.312 49.8341 132.549 49.7171 132.749 49.5504C132.832 49.4793 132.899 49.3905 132.944 49.2906C132.989 49.1906 133.011 49.0819 133.009 48.9722C133.015 48.7694 132.971 48.5681 132.881 48.3863C132.779 48.2022 132.611 48.0635 132.411 47.9982C132.084 47.8958 131.741 47.8512 131.399 47.8663H130.568C130.359 47.8663 130.18 47.8663 130.013 47.843C129.867 47.8295 129.722 47.8061 129.579 47.7732C129.525 47.7606 129.473 47.7383 129.427 47.7072C129.38 47.6778 129.329 47.6555 129.276 47.6412C129.017 47.5684 128.793 47.4061 128.643 47.1833C128.529 46.9952 128.468 46.7789 128.469 46.5586C128.476 46.3878 128.519 46.2198 128.593 46.0657C128.68 45.8849 128.798 45.7208 128.942 45.5807C129.112 45.4153 129.305 45.2766 129.516 45.1693L130.459 45.375C130.308 45.4417 130.175 45.5442 130.071 45.6738C129.966 45.7945 129.907 45.9484 129.905 46.1084C129.893 46.1968 129.904 46.2867 129.936 46.37C129.968 46.4532 130.02 46.5274 130.087 46.5857C130.279 46.6871 130.495 46.7315 130.712 46.7138H131.942C132.381 46.7021 132.819 46.7569 133.242 46.8768C133.531 46.9606 133.797 47.1108 134.018 47.3153C134.196 47.4841 134.33 47.6948 134.406 47.9284C134.479 48.1541 134.515 48.3898 134.515 48.6269C134.52 48.9801 134.425 49.3275 134.239 49.6281C134.048 49.9315 133.789 50.1865 133.482 50.3731C133.139 50.5822 132.764 50.7355 132.373 50.8271C131.935 50.9369 131.485 50.9929 131.034 50.994ZM130.972 45.5613C130.483 45.5689 129.997 45.4737 129.548 45.2819C129.151 45.1196 128.807 44.851 128.554 44.5058C128.311 44.158 128.185 43.7423 128.193 43.3183C128.175 42.8555 128.301 42.3985 128.554 42.0106C128.8 41.6581 129.146 41.3877 129.548 41.2345C130.008 41.056 130.497 40.9652 130.991 40.9667C131.485 40.9519 131.978 41.0309 132.442 41.1996C132.848 41.347 133.202 41.6084 133.463 41.9524C133.73 42.3305 133.867 42.7857 133.851 43.2485C133.873 43.6922 133.752 44.1312 133.507 44.5018C133.262 44.8724 132.906 45.1552 132.489 45.309C132.004 45.4899 131.489 45.5729 130.972 45.5535V45.5613ZM130.995 44.595C131.337 44.6133 131.675 44.5177 131.957 44.3234C132.093 44.1886 132.197 44.0243 132.259 43.8434C132.322 43.6624 132.342 43.4695 132.318 43.2795C132.346 42.9208 132.235 42.5653 132.008 42.2861C131.882 42.1658 131.733 42.0735 131.569 42.0153C131.405 41.9571 131.23 41.9343 131.057 41.9485C130.828 41.9461 130.6 41.9815 130.382 42.0533C130.182 42.1243 130.012 42.2612 129.901 42.4413C129.765 42.7179 129.705 43.0253 129.726 43.3325C129.747 43.6398 129.849 43.9361 130.021 44.1914C130.138 44.3328 130.288 44.4434 130.458 44.5137C130.628 44.584 130.812 44.6119 130.995 44.595ZM133.059 42.193L132.702 41.5527C132.851 41.3986 133.029 41.2759 133.226 41.1918C133.502 41.0595 133.805 40.9931 134.111 40.9978H134.837V42.193H133.059ZM135.621 47.4705L135.818 46.3296C135.94 46.4096 136.07 46.4747 136.207 46.5236C136.436 46.6156 136.672 46.6893 136.913 46.7448C137.191 46.8111 137.476 46.8462 137.763 46.8496C138.067 46.8739 138.372 46.8078 138.64 46.6595C138.732 46.6026 138.808 46.5225 138.86 46.4272C138.911 46.3318 138.937 46.2246 138.935 46.1162C138.935 46.0346 138.92 45.9536 138.888 45.8782C138.857 45.8028 138.811 45.7346 138.752 45.6777C138.606 45.5363 138.437 45.4208 138.252 45.3362C138.042 45.2314 137.801 45.1228 137.538 45.0064C137.179 44.8565 136.837 44.6692 136.517 44.4476C136.249 44.2647 136.025 44.0249 135.861 43.7452C135.704 43.4524 135.627 43.1228 135.64 42.7906C135.633 42.4145 135.761 42.0484 136.001 41.7584C136.249 41.4739 136.569 41.262 136.928 41.1452C137.346 41.0051 137.784 40.9369 138.224 40.9434C138.624 40.9355 139.024 40.9812 139.412 41.0793C139.642 41.1312 139.866 41.2094 140.079 41.3121L139.877 42.4762C139.768 42.3968 139.648 42.3329 139.52 42.2861C139.346 42.214 139.163 42.1607 138.977 42.127C138.773 42.0882 138.565 42.0688 138.356 42.0688C138.038 42.0498 137.72 42.1084 137.429 42.2395C137.337 42.2816 137.26 42.3488 137.205 42.4332C137.15 42.5177 137.12 42.6161 137.118 42.7168C137.109 42.837 137.131 42.9575 137.184 43.0659C137.237 43.1744 137.317 43.2669 137.417 43.3338C137.663 43.4949 137.923 43.6338 138.193 43.7491C138.591 43.9318 138.98 44.1352 139.357 44.3583C139.659 44.5321 139.923 44.7643 140.134 45.0413C140.328 45.3164 140.427 45.6474 140.417 45.9842C140.435 46.2702 140.382 46.5562 140.262 46.8168C140.143 47.0774 139.962 47.3046 139.734 47.4782C139.186 47.8454 138.534 48.0238 137.875 47.9866C137.555 47.9889 137.236 47.9629 136.921 47.909C136.647 47.8652 136.377 47.8003 136.113 47.715C135.939 47.656 135.773 47.5738 135.621 47.4705ZM143.987 47.9866C143.672 47.9939 143.359 47.9358 143.067 47.8159C142.81 47.6961 142.603 47.4902 142.481 47.2338C142.325 46.876 142.253 46.4869 142.272 46.0968V42.1542H141.406V41.3121C141.709 41.2267 141.946 41.1491 142.113 41.0831C142.202 41.0503 142.282 40.9986 142.349 40.9316C142.416 40.8646 142.468 40.7839 142.501 40.6951C142.534 40.602 142.573 40.4933 142.617 40.3691L142.757 39.9539L142.92 39.4688H143.863V41.0211H145.741V42.1464H143.843V45.3246C143.834 45.6466 143.855 45.9687 143.905 46.2869C143.911 46.3648 143.935 46.4403 143.975 46.5076C144.014 46.5749 144.069 46.6322 144.134 46.675C144.285 46.7367 144.448 46.7646 144.612 46.7565C144.742 46.7553 144.872 46.7425 145 46.7177C145.141 46.6912 145.281 46.6576 145.419 46.6168C145.527 46.5853 145.631 46.5427 145.729 46.4887L145.97 47.3812C145.818 47.4984 145.651 47.595 145.473 47.6684C145.244 47.7642 145.006 47.8395 144.763 47.8935C144.509 47.9529 144.248 47.9842 143.987 47.9866ZM150.01 47.9866C149.576 48.0135 149.142 47.9431 148.739 47.7806C148.336 47.6181 147.975 47.3676 147.681 47.0475C147.101 46.3097 146.811 45.3847 146.866 44.4476C146.855 43.8317 146.98 43.2209 147.231 42.6586C147.463 42.1491 147.836 41.7167 148.306 41.413C148.825 41.0925 149.427 40.9294 150.037 40.9434C150.372 40.9338 150.707 40.981 151.026 41.0831C151.331 41.1848 151.612 41.347 151.853 41.5604C152.102 41.7908 152.298 42.0729 152.427 42.387C152.58 42.7653 152.658 43.1701 152.656 43.5783V44.2691C152.655 44.4501 152.636 44.6307 152.602 44.8084H147.759L147.883 43.8732H151.197C151.218 43.5667 151.198 43.2588 151.139 42.9574C151.092 42.7005 150.964 42.4653 150.774 42.2861C150.549 42.1021 150.261 42.0118 149.971 42.0339C149.677 42.0285 149.389 42.1168 149.148 42.2861C148.875 42.5081 148.681 42.8133 148.597 43.1553C148.45 43.704 148.394 44.2728 148.43 44.8395C148.432 45.2462 148.535 45.6462 148.729 46.0036C148.89 46.2788 149.135 46.4951 149.427 46.6207C149.74 46.7487 150.076 46.812 150.413 46.8069C150.613 46.8051 150.813 46.7882 151.011 46.7565C151.233 46.7261 151.453 46.6821 151.67 46.6245C151.838 46.5853 152 46.524 152.152 46.4421L152.443 47.3308C152.252 47.472 152.042 47.583 151.818 47.6606C151.536 47.76 151.247 47.8364 150.953 47.8896C150.642 47.9513 150.326 47.9835 150.01 47.9866Z" fill="white"/>
</svg>
