<svg width="27" height="29" viewBox="0 0 27 29" fill="none" xmlns="http://www.w3.org/2000/svg">
<path d="M25.5 27.5L17.5 18.8333M20.1667 11.6111C20.1667 12.9389 19.9253 14.2537 19.4562 15.4805C18.9872 16.7072 18.2997 17.8218 17.433 18.7607C16.5663 19.6996 15.5374 20.4444 14.405 20.9526C13.2727 21.4607 12.059 21.7222 10.8333 21.7222C9.60766 21.7222 8.39399 21.4607 7.26162 20.9526C6.12925 20.4444 5.10035 19.6996 4.23367 18.7607C3.36699 17.8218 2.6795 16.7072 2.21046 15.4805C1.74141 14.2537 1.5 12.9389 1.5 11.6111C1.5 8.92948 2.48333 6.35768 4.23367 4.46148C5.98401 2.56527 8.35798 1.5 10.8333 1.5C13.3087 1.5 15.6827 2.56527 17.433 4.46148C19.1833 6.35768 20.1667 8.92948 20.1667 11.6111Z" stroke="white" stroke-width="3" stroke-linecap="round" stroke-linejoin="round"/>
</svg>
