<svg width="49" height="49" viewBox="0 0 49 49" fill="none" xmlns="http://www.w3.org/2000/svg">
<path d="M30.1187 22.8016L23.5905 18.4498C22.2338 17.5453 20.4167 18.5182 20.4167 20.1484V28.8521C20.4167 30.4823 22.2338 31.4552 23.5915 30.5507L30.1187 26.1989C30.3984 26.0125 30.6276 25.7599 30.7862 25.4635C30.9448 25.1672 31.0277 24.8363 31.0277 24.5002C31.0277 24.1642 30.9448 23.8333 30.7862 23.537C30.6276 23.2406 30.3984 22.988 30.1187 22.8016Z" fill="black" fill-opacity="0.25"/>
<path d="M42.875 24.5C42.875 34.6481 34.6481 42.875 24.5 42.875C14.3519 42.875 6.125 34.6481 6.125 24.5C6.125 14.3519 14.3519 6.125 24.5 6.125C34.6481 6.125 42.875 14.3519 42.875 24.5Z" fill="black" fill-opacity="0.25"/>
<path d="M30.1187 22.8016L23.5905 18.4498C22.2338 17.5453 20.4167 18.5182 20.4167 20.1484V28.8521C20.4167 30.4823 22.2338 31.4552 23.5915 30.5507L30.1187 26.1989C30.3984 26.0125 30.6276 25.7599 30.7862 25.4635C30.9448 25.1672 31.0277 24.8363 31.0277 24.5002C31.0277 24.1642 30.9448 23.8333 30.7862 23.537C30.6276 23.2406 30.3984 22.988 30.1187 22.8016Z" stroke="white" stroke-width="1.66667" stroke-linecap="round" stroke-linejoin="round"/>
<path d="M42.875 24.5C42.875 34.6481 34.6481 42.875 24.5 42.875C14.3519 42.875 6.125 34.6481 6.125 24.5C6.125 14.3519 14.3519 6.125 24.5 6.125C34.6481 6.125 42.875 14.3519 42.875 24.5Z" stroke="white" stroke-width="1.66667" stroke-linecap="round" stroke-linejoin="round"/>
</svg>
