<svg width="119" height="119" viewBox="0 0 119 119" fill="none" xmlns="http://www.w3.org/2000/svg">
<path d="M118.5 59.25C118.5 91.9725 91.9725 118.5 59.25 118.5C26.5275 118.5 0 91.9725 0 59.25C0 26.5275 26.5275 0 59.25 0C91.9725 0 118.5 26.5275 118.5 59.25Z" fill="#E33E45"/>
<path d="M77.284 53.1489L56.2338 39.1165C51.8592 36.2001 46 39.337 46 44.5938V72.6586C46 77.9154 51.8592 81.0523 56.2371 78.1359L77.284 64.1035C78.1856 63.5023 78.9249 62.6878 79.4362 61.7323C79.9475 60.7768 80.2151 59.7099 80.2151 58.6262C80.2151 57.5425 79.9475 56.4756 79.4362 55.5201C78.9249 54.5646 78.1856 53.7501 77.284 53.1489Z" stroke="#E5E5E5" stroke-width="1.66667" stroke-linecap="round" stroke-linejoin="round"/>
</svg>
