<svg width="29" height="29" viewBox="0 0 29 29" fill="none" xmlns="http://www.w3.org/2000/svg">
<path d="M14.5 8.72222V14.5L18.8333 18.8333M27.5 14.5C27.5 16.2072 27.1637 17.8977 26.5104 19.4749C25.8571 21.0521 24.8995 22.4852 23.6924 23.6924C22.4852 24.8995 21.0521 25.8571 19.4749 26.5104C17.8977 27.1637 16.2072 27.5 14.5 27.5C12.7928 27.5 11.1023 27.1637 9.52512 26.5104C7.94788 25.8571 6.51477 24.8995 5.30761 23.6924C4.10045 22.4852 3.14288 21.0521 2.48957 19.4749C1.83625 17.8977 1.5 16.2072 1.5 14.5C1.5 11.0522 2.86964 7.74558 5.30761 5.30761C7.74558 2.86964 11.0522 1.5 14.5 1.5C17.9478 1.5 21.2544 2.86964 23.6924 5.30761C26.1304 7.74558 27.5 11.0522 27.5 14.5Z" stroke="white" stroke-width="3" stroke-linecap="round" stroke-linejoin="round"/>
</svg>
