<svg width="21" height="20" viewBox="0 0 21 20" fill="none" xmlns="http://www.w3.org/2000/svg">
<path d="M10.0723 6V10L13.0963 13M19.1445 10C19.1445 11.1819 18.9098 12.3522 18.4539 13.4442C17.998 14.5361 17.3297 15.5282 16.4873 16.364C15.6449 17.1997 14.6448 17.8626 13.5441 18.3149C12.4434 18.7672 11.2636 19 10.0723 19C8.88087 19 7.70115 18.7672 6.60045 18.3149C5.49976 17.8626 4.49964 17.1997 3.6572 16.364C2.81476 15.5282 2.14651 14.5361 1.69058 13.4442C1.23466 12.3522 1 11.1819 1 10C1 7.61305 1.95582 5.32387 3.6572 3.63604C5.35858 1.94821 7.66614 1 10.0723 1C12.4784 1 14.7859 1.94821 16.4873 3.63604C18.1887 5.32387 19.1445 7.61305 19.1445 10Z" stroke="black" stroke-width="2" stroke-linecap="round" stroke-linejoin="round"/>
</svg>
